<svg
  width="120"
  height="19"
  viewBox="0 0 120 19"
  fill="none"
  xmlns="http://www.w3.org/2000/svg">
  <title>Cinecolab</title>
  <g fill="#101915">
    <path
      d="M13.8301 14.969L14.0834 15.7555C13.6612 16.2143 13.0871 16.6977 12.3609 17.2057C11.6517 17.7137 10.8243 18.1397 9.87863 18.4838C8.93298 18.8279 7.89446 19 6.76306 19C4.71979 19 3.08179 18.4756 1.84908 17.4269C0.616359 16.3782 0 14.7887 0 12.6585C0 11.3803 0.219525 10.1677 0.658575 9.0207C1.11451 7.87365 1.72243 6.82492 2.48232 5.87451C3.2591 4.9241 4.14565 4.10479 5.14195 3.41656C6.13826 2.71194 7.19367 2.17119 8.30818 1.79431C9.42269 1.40104 10.5372 1.2044 11.6517 1.2044C12.6311 1.2044 13.5261 1.26175 14.3367 1.37646C15.1641 1.49116 15.9156 1.6878 16.591 1.96636V2.31048C16.2533 2.65459 15.8734 3.1216 15.4512 3.71151C15.029 4.28504 14.6491 4.91591 14.3113 5.60414C13.9736 6.27598 13.7541 6.93144 13.6528 7.5705H12.9689L12.4876 3.83441C12.0654 3.50668 11.6179 3.26908 11.1451 3.1216C10.6723 2.97413 10.1657 2.90039 9.62533 2.90039C9.01741 2.90039 8.41794 3.08883 7.82691 3.46572C7.25277 3.8426 6.72929 4.39155 6.25646 5.11255C5.80053 5.83355 5.43747 6.71841 5.16728 7.76714C4.8971 8.81587 4.76201 10.0039 4.76201 11.3312C4.76201 13.1828 5.11662 14.5675 5.82586 15.4851C6.53509 16.4028 7.5314 16.8616 8.81478 16.8616C9.77731 16.8616 10.7145 16.6977 11.6264 16.37C12.5551 16.0423 13.2897 15.5752 13.8301 14.969Z" />
    <path
      d="M20.5542 1.17982L23.5684 0.56533L23.6444 0.614488C23.6613 0.74558 23.6697 0.893057 23.6697 1.05692C23.6697 1.2044 23.6697 1.36007 23.6697 1.52393C23.6697 1.90082 23.6528 2.29409 23.6191 2.70375C23.6022 3.11341 23.5515 3.4821 23.4671 3.80983L23.3911 3.90815L20.4528 4.59638L20.4275 4.54722C20.4613 4.2031 20.4866 3.83441 20.5035 3.44114C20.5373 3.04786 20.5542 2.66279 20.5542 2.2859C20.5542 2.10565 20.5542 1.93359 20.5542 1.76973C20.5542 1.58948 20.5457 1.41742 20.5288 1.25356L20.5542 1.17982ZM22.7832 16.9845L22.8338 17.4761C22.4117 18.0332 21.8038 18.4265 21.0101 18.6559C20.2164 18.8853 19.3974 19 18.5531 19C18.2154 19 17.8608 18.9426 17.4892 18.8279C17.1177 18.7296 16.8053 18.5658 16.552 18.3364C16.2987 18.0906 16.1721 17.7874 16.1721 17.4269C16.1721 17.3122 16.189 17.1483 16.2228 16.9353C16.2565 16.7059 16.3241 16.411 16.4254 16.0505L18.5784 8.16041L16.3241 8.01294L16.4761 7.47219C16.6956 7.43941 17.0586 7.39025 17.5652 7.32471C18.0887 7.24278 18.6713 7.15265 19.313 7.05433C19.9547 6.93963 20.5879 6.81673 21.2127 6.68564C21.8375 6.55455 22.361 6.43165 22.7832 6.31695L23.4924 6.68564L20.6808 16.4191C20.6639 16.5175 20.6386 16.6076 20.6048 16.6895C20.5879 16.7715 20.5795 16.8534 20.5795 16.9353C20.5795 17.1811 20.647 17.3696 20.7821 17.5006C20.9341 17.6153 21.1283 17.6727 21.3647 17.6727C21.618 17.6727 21.846 17.6153 22.0486 17.5006C22.2513 17.3859 22.4454 17.2139 22.6312 16.9845H22.7832Z" />
    <path
      d="M38.9897 16.9845L39.0404 17.4761C38.7195 17.9185 38.1792 18.2872 37.4193 18.5821C36.6763 18.8607 35.8741 19 35.0129 19C34.1855 19 33.5354 18.8607 33.0625 18.5821C32.6066 18.3036 32.3786 17.9185 32.3786 17.4269C32.3786 17.2794 32.404 17.0828 32.4546 16.837C32.5053 16.5912 32.5644 16.329 32.6319 16.0505L33.8478 11.8719C34.0335 11.2165 34.1686 10.7003 34.253 10.3234C34.3375 9.94653 34.3797 9.65157 34.3797 9.43855C34.3797 9.2583 34.329 9.12721 34.2277 9.04528C34.1433 8.96335 34.0082 8.92238 33.8224 8.92238C33.4678 8.92238 33.0963 9.05347 32.7079 9.31565C32.3195 9.56145 31.948 9.91376 31.5934 10.3726C31.2388 10.8314 30.9095 11.3558 30.6055 11.9457C30.3185 12.5192 30.0821 13.1419 29.8963 13.8137L28.5792 18.705H24.2224L27.0594 8.11125L24.8557 7.98836L25.0077 7.42303C26.3079 7.25916 27.5069 7.07891 28.6045 6.88228C29.7021 6.66925 30.6055 6.48081 31.3148 6.31695L32.024 6.63648L30.1496 10.9133L30.3776 11.0116C31.1037 9.88098 31.7792 8.97154 32.404 8.28331C33.0456 7.59508 33.6789 7.0953 34.3037 6.78396C34.9454 6.47262 35.6124 6.31695 36.3048 6.31695C37.1491 6.31695 37.7992 6.50539 38.2551 6.88228C38.728 7.24278 38.9644 7.75075 38.9644 8.40621C38.9644 8.63562 38.9391 8.90599 38.8884 9.21733C38.8546 9.52868 38.7786 9.88918 38.6604 10.2988L36.8873 16.4191C36.8367 16.583 36.8029 16.6977 36.786 16.7633C36.786 16.8288 36.786 16.8862 36.786 16.9353C36.786 17.4269 37.0478 17.6727 37.5712 17.6727C37.8077 17.6727 38.0272 17.6235 38.2298 17.5252C38.4493 17.4105 38.652 17.2303 38.8377 16.9845H38.9897Z" />
    <path
      d="M50.9117 15.4114L51.0637 15.9276C50.7429 16.3208 50.3123 16.7633 49.7719 17.2548C49.2315 17.7301 48.5983 18.1397 47.8722 18.4838C47.1629 18.8279 46.3693 19 45.4912 19C44.4949 19 43.6421 18.7952 42.9329 18.3855C42.2405 17.9759 41.717 17.4433 41.3624 16.7878C41.0078 16.116 40.8305 15.395 40.8305 14.6248C40.8305 13.6253 41.0416 12.6339 41.4637 11.6507C41.9028 10.6675 42.5107 9.77447 43.2875 8.97154C44.0642 8.16861 44.9761 7.52954 46.0231 7.05433C47.0701 6.56274 48.2183 6.31695 49.4679 6.31695C50.3292 6.31695 51.0215 6.39888 51.545 6.56274C52.0854 6.72661 52.4822 6.9724 52.7355 7.30013C52.9888 7.61147 53.1154 8.01294 53.1154 8.50453C53.1154 9.06166 52.9044 9.59422 52.4822 10.1022C52.06 10.5938 51.4943 11.0362 50.7851 11.4295C50.0759 11.8228 49.2906 12.1587 48.4294 12.4373C47.5851 12.6994 46.7323 12.8961 45.8711 13.0272L45.2125 13.1255V13.5433C45.2125 14.1169 45.297 14.633 45.4658 15.0918C45.6516 15.5507 45.9387 15.9112 46.327 16.1734C46.7154 16.4355 47.222 16.5666 47.8468 16.5666C48.2352 16.5666 48.6996 16.4929 49.24 16.3454C49.7972 16.1815 50.3545 15.8702 50.9117 15.4114ZM48.1255 7.52135C47.7708 7.52135 47.4331 7.63605 47.1123 7.86546C46.8083 8.07848 46.5212 8.39802 46.2511 8.82406C45.9978 9.25011 45.7867 9.76628 45.6178 10.3726C45.4489 10.9625 45.3307 11.6343 45.2632 12.3881L45.8204 12.3144C46.3946 12.2324 46.9012 11.9948 47.3402 11.6016C47.7793 11.2083 48.1255 10.7331 48.3788 10.1759C48.6321 9.60241 48.7587 9.02889 48.7587 8.45537C48.7587 8.14403 48.6996 7.91462 48.5814 7.76714C48.4801 7.60328 48.3281 7.52135 48.1255 7.52135ZM47.8975 4.37516L47.6189 3.68693C47.9397 3.52307 48.3703 3.29366 48.9107 2.99871C49.4679 2.68736 50.059 2.35144 50.6838 1.99094C51.3255 1.61406 51.9418 1.25356 52.5328 0.909444C53.1239 0.565329 53.6051 0.262182 53.9766 0L54.2806 2.77749C53.5883 3.0069 52.8368 3.22812 52.0262 3.44114C51.2157 3.65416 50.4474 3.8426 49.7212 4.00647C48.9951 4.15394 48.3872 4.27684 47.8975 4.37516Z" />
    <path
      d="M64.0466 15.4114L64.1986 15.9276C63.8778 16.3208 63.4472 16.7633 62.9068 17.2548C62.3664 17.7301 61.7332 18.1397 61.0071 18.4838C60.2978 18.8279 59.5042 19 58.6261 19C57.6297 19 56.777 18.7952 56.0677 18.3855C55.3754 17.9759 54.8519 17.4433 54.4973 16.7878C54.1427 16.116 53.9654 15.395 53.9654 14.6248C53.9654 13.6253 54.1765 12.6339 54.5986 11.6507C55.0377 10.6675 55.6456 9.77447 56.4224 8.97154C57.1991 8.16861 58.111 7.52954 59.158 7.05433C60.2049 6.56274 61.3532 6.31695 62.6028 6.31695C63.1432 6.31695 63.7342 6.36611 64.3759 6.46442C65.0345 6.56274 65.6002 6.72661 66.073 6.95602V7.20181C65.6002 7.75895 65.2118 8.37344 64.9078 9.04528C64.6208 9.71712 64.4097 10.4709 64.2746 11.3066H63.692L62.5775 7.89004C62.1722 7.64424 61.7754 7.52135 61.387 7.52135C60.9311 7.52135 60.5173 7.66063 60.1458 7.9392C59.7743 8.21777 59.4535 8.61923 59.1833 9.1436C58.9131 9.66796 58.702 10.307 58.5501 11.0608C58.415 11.7982 58.3474 12.6257 58.3474 13.5433C58.3474 14.3954 58.5501 15.1164 58.9553 15.7063C59.3606 16.2799 60.0361 16.5666 60.9817 16.5666C61.3701 16.5666 61.8345 16.4929 62.3749 16.3454C62.9321 16.1815 63.4894 15.8702 64.0466 15.4114Z" />
    <path
      d="M73.2497 7.74256C72.4729 7.74256 71.8481 8.25054 71.3753 9.26649C70.9024 10.2661 70.666 11.6917 70.666 13.5433C70.666 14.7887 70.8349 15.7719 71.1726 16.4929C71.5104 17.2139 71.9663 17.5744 72.5404 17.5744C73.351 17.5744 73.9842 17.0664 74.4402 16.0505C74.913 15.0181 75.1494 13.5843 75.1494 11.749C75.1494 10.4873 74.9805 9.5041 74.6428 8.79948C74.3051 8.09487 73.8407 7.74256 73.2497 7.74256ZM74.9214 6.31695C75.9346 6.31695 76.7874 6.52178 77.4797 6.93144C78.1721 7.32471 78.6956 7.84907 79.0502 8.50453C79.4048 9.15998 79.5821 9.87279 79.5821 10.6429C79.5821 11.6425 79.3626 12.6339 78.9235 13.6171C78.5014 14.6003 77.8935 15.5015 77.0998 16.3208C76.323 17.1238 75.4027 17.771 74.3389 18.2626C73.2919 18.7378 72.1436 18.9754 70.894 18.9754C69.8977 18.9754 69.0534 18.7788 68.361 18.3855C67.6687 17.9759 67.1452 17.4433 66.7906 16.7878C66.4528 16.116 66.284 15.395 66.284 14.6248C66.284 13.6253 66.4951 12.6339 66.9172 11.6507C67.3563 10.6675 67.9642 9.77447 68.741 8.97154C69.5177 8.16861 70.4296 7.52954 71.4766 7.05433C72.5235 6.56274 73.6718 6.31695 74.9214 6.31695Z" />
    <path
      d="M87.8858 16.9845L87.9364 17.4761C87.5142 18.0332 86.9063 18.4265 86.1127 18.6559C85.319 18.8853 84.5 19 83.6557 19C83.3179 19 82.9633 18.9426 82.5918 18.8279C82.2203 18.7296 81.9079 18.5658 81.6546 18.3364C81.4013 18.0906 81.2747 17.7874 81.2747 17.4269C81.2747 17.3122 81.2916 17.1483 81.3253 16.9353C81.3591 16.7059 81.4266 16.411 81.528 16.0505L85.4034 2.11384L83.1491 1.96636L83.3011 1.42562C83.7908 1.36007 84.4156 1.26994 85.1755 1.15524C85.9522 1.04053 86.7375 0.901251 87.5311 0.737387C88.3417 0.573523 89.034 0.417852 89.6082 0.270375L90.3174 0.639069L85.7834 16.4191C85.7665 16.5175 85.7412 16.6076 85.7074 16.6895C85.6905 16.7715 85.6821 16.8534 85.6821 16.9353C85.6821 17.4269 85.9438 17.6727 86.4673 17.6727C86.7206 17.6727 86.9485 17.6153 87.1512 17.5006C87.3538 17.3859 87.548 17.2139 87.7338 16.9845H87.8858Z" />
    <path
      d="M103.64 16.9845L103.691 17.4761C103.319 17.9513 102.753 18.3282 101.993 18.6067C101.234 18.8689 100.457 19 99.6631 19C99.2747 19 98.8948 18.9508 98.5233 18.8525C98.1687 18.7706 97.8731 18.6149 97.6367 18.3855C97.4003 18.1561 97.2821 17.8202 97.2821 17.3777C97.2821 17.0009 97.3243 16.6076 97.4088 16.1979C97.5101 15.7883 97.6283 15.3704 97.7634 14.9444C97.9154 14.5183 98.0673 14.1005 98.2193 13.6908L97.9407 13.5925C97.0119 15.2803 96.0916 16.6076 95.1797 17.5744C94.2848 18.5248 93.2378 19 92.0389 19C91.2114 19 90.5782 18.7132 90.1391 18.1397C89.7001 17.5662 89.4805 16.837 89.4805 15.9521C89.4805 15.2311 89.6072 14.4446 89.8605 13.5925C90.1307 12.724 90.5022 11.8637 90.975 11.0116C91.4647 10.1596 92.0473 9.3812 92.7228 8.67658C93.3982 7.95558 94.1497 7.38206 94.9771 6.95602C95.8214 6.52997 96.7249 6.31695 97.6874 6.31695C98.3797 6.31695 99.0383 6.41527 99.6631 6.6119C100.305 6.80854 100.862 7.08711 101.335 7.44761L103.792 6.31695L104.248 6.43984L101.639 15.9521C101.571 16.1652 101.521 16.3618 101.487 16.542C101.47 16.7059 101.462 16.837 101.462 16.9353C101.462 17.4269 101.715 17.6727 102.221 17.6727C102.694 17.6727 103.116 17.4433 103.488 16.9845H103.64ZM93.8373 14.9444C93.8373 15.2557 93.8879 15.5097 93.9892 15.7063C94.1074 15.903 94.2932 16.0013 94.5465 16.0013C94.8505 16.0013 95.2304 15.7883 95.6863 15.3622C96.1423 14.9198 96.6911 14.1578 97.3328 13.0763C97.9745 11.9948 98.7259 10.4955 99.5871 8.57827C99.3169 8.15222 99.0214 7.82449 98.7006 7.59508C98.3966 7.36567 98.1096 7.25097 97.8394 7.25097C97.3666 7.25097 96.9191 7.4558 96.4969 7.86546C96.0916 8.27512 95.7201 8.79948 95.3824 9.43855C95.0615 10.0776 94.7829 10.7577 94.5465 11.4787C94.327 12.1833 94.1497 12.8469 94.0146 13.4696C93.8964 14.0923 93.8373 14.5839 93.8373 14.9444Z" />
    <path
      d="M120 9.36481C120 10.0858 119.873 10.8806 119.62 11.749C119.367 12.6011 118.995 13.4532 118.506 14.3053C118.033 15.1574 117.459 15.9439 116.783 16.6649C116.125 17.3696 115.373 17.9349 114.529 18.3609C113.701 18.787 112.806 19 111.844 19C111.033 19 110.248 18.8853 109.488 18.6559C108.745 18.4101 108.129 18.066 107.639 17.6235L105.638 18.705H105.131L109.665 2.06468L107.436 1.91721L107.588 1.37646C108.213 1.3273 108.897 1.25356 109.64 1.15524C110.4 1.04053 111.151 0.909444 111.894 0.761967C112.637 0.598103 113.296 0.434239 113.87 0.270375L114.605 0.589909L111.008 11.9702L111.16 12.044C111.768 10.9297 112.393 9.94653 113.034 9.09444C113.676 8.22596 114.351 7.54592 115.061 7.05433C115.77 6.56274 116.521 6.31695 117.315 6.31695C118.21 6.31695 118.877 6.59552 119.316 7.15265C119.772 7.70979 120 8.44717 120 9.36481ZM114.909 9.34023C114.571 9.34023 114.157 9.56145 113.668 10.0039C113.178 10.4299 112.604 11.1755 111.945 12.2406C111.287 13.2893 110.527 14.7559 109.665 16.6404C109.953 17.0992 110.282 17.4515 110.653 17.6973C111.042 17.9431 111.388 18.066 111.692 18.066C112.097 18.066 112.494 17.8857 112.882 17.5252C113.271 17.1647 113.625 16.6895 113.946 16.0996C114.284 15.5097 114.579 14.8706 114.833 14.1824C115.086 13.4942 115.28 12.8223 115.415 12.1669C115.55 11.5114 115.618 10.9379 115.618 10.4463C115.618 10.1022 115.567 9.83182 115.466 9.63519C115.382 9.43855 115.196 9.34023 114.909 9.34023Z" />
  </g>
</svg>
